<svg width="128" height="169" viewBox="0 0 128 169" fill="none" xmlns="http://www.w3.org/2000/svg">
<path d="M102.901 109.187C102.767 109.172 83.4111 109.743 80.5332 89.0011C83.731 86.7698 86.6782 83.8732 89.2747 80.3585C94.3257 73.5208 97.5804 64.9432 98.7397 55.6651C99.138 55.3048 99.4678 54.8565 99.6898 54.3281C101.787 49.3312 102.851 43.9958 102.851 38.4692C102.851 17.2573 86.8503 0 67.1814 0C62.0374 0 57.0468 1.18493 52.3333 3.5249C50.5352 3.66218 48.7733 3.97845 47.0836 4.46648C39.0055 6.80054 32.4319 12.7899 28.5733 21.332C24.8274 29.6259 24.0891 39.3894 26.4951 48.8245C27.0035 50.8177 27.6498 52.7763 28.4163 54.6477C28.6239 55.1538 28.9332 55.5856 29.3047 55.941C31.1826 70.4225 38.0731 82.4213 47.4685 88.9722C44.5817 109.75 25.2326 109.173 25.0993 109.187C11.1803 109.66 0 121.122 0 135.154V164.364C0 166.455 1.69496 168.15 3.786 168.15H37.032H90.967H124.214C126.304 168.15 128 166.455 128 164.364V135.154C128 121.122 116.82 109.659 102.901 109.187ZM49.1858 11.7412C50.5674 11.3419 52.0266 11.1051 53.5228 11.0378C54.0782 11.0128 54.6211 10.866 55.1134 10.6072C58.9463 8.59337 63.0069 7.57232 67.1817 7.57232C82.6745 7.57232 95.2791 21.4325 95.2791 38.4692C95.2791 38.9805 95.2647 39.4892 95.2424 39.996C92.2373 36.9443 88.0622 35.0477 83.4515 35.0477H57.6474C56.1121 35.0477 54.6549 34.5656 53.4328 33.6533C52.3895 32.8746 51.5829 31.8279 51.1011 30.6266C50.3549 28.7684 48.5151 27.6061 46.5124 27.7319C44.5025 27.86 42.8112 29.2557 42.3034 31.2062C40.8082 36.9522 37.8265 42.245 33.7357 46.5371C29.9293 30.8719 36.7988 15.32 49.1858 11.7412ZM45.8917 77.2241C40.9651 71.2055 37.7388 63.0781 36.7161 54.1803C41.4936 49.9224 45.2704 44.6237 47.7292 38.7463C48.1023 39.0905 48.4941 39.416 48.9033 39.7218C51.444 41.6177 54.4674 42.6204 57.6478 42.6204H83.4518C87.1029 42.6204 90.2497 44.8102 91.6541 47.9443C91.6537 47.9713 91.6498 47.9969 91.6498 48.0238C91.6498 69.3966 79.2488 86.7846 64.0056 86.7846C57.3716 86.785 50.9382 83.3894 45.8917 77.2241ZM54.5912 92.6902C57.5926 93.7763 60.7497 94.3573 64.0056 94.3573C67.2356 94.3573 70.3913 93.795 73.4125 92.7103C74.7987 99.9325 78.8142 106.227 84.4233 110.561L64.5426 138.873C64.4128 139.058 64.2325 139.151 64.0066 139.151C63.7809 139.151 63.6007 139.057 63.4713 138.873L43.5856 110.554C49.195 106.216 53.2092 99.9167 54.5912 92.6902ZM120.427 160.577H90.967H37.032H7.57199V135.154C7.57199 124.998 15.834 116.736 25.9893 116.736C26.1272 116.736 32.2197 116.588 37.0337 114.401L57.2737 143.224C58.812 145.416 61.329 146.724 64.0062 146.724C64.0062 146.724 64.0062 146.724 64.0066 146.724C66.6835 146.724 69.2008 145.416 70.7391 143.224L90.9756 114.405C96.4657 116.737 101.872 116.737 102.01 116.737C112.166 116.737 120.427 124.999 120.427 135.154V160.577Z" fill="black"/>
</svg>
