<svg width="84" height="84" viewBox="0 0 84 84" fill="none" xmlns="http://www.w3.org/2000/svg">
<g clip-path="url(#clip0)">
<path d="M21.75 46.2092L23.4627 46.7804L36.8851 29.3296L33.4346 26.739L21.75 46.2092ZM60.9493 11.5397L52.518 16.0654C51.3498 16.6828 50.7652 18.0277 51.1115 19.3037L52.35 23.4796L60.9601 18.3169L63.9421 16.5272L60.9493 11.5397ZM69.8312 25.8554L69.0632 24.6559L64.1281 28.3258C61.6166 30.2116 60.3334 33.3179 60.7834 36.4258L60.9704 40.7614L74.3759 33.0344L69.8312 25.8554ZM5.99999 69.5414H27.9868L80.4868 40.4414L77.4555 34.7419L27.7505 63.3426C27.5219 63.4731 27.263 63.5419 27 63.5419H0C0 66.8558 2.68664 69.5414 5.99999 69.5414ZM0 60.5419H26.5993L36.8877 54.6185L33.4289 51.0914C32.8572 50.4919 32.8803 49.5426 33.4803 48.9709C34.068 48.4109 34.9947 48.4207 35.5705 48.9914L39.5728 53.0717L45.2728 49.7866L39.5563 45.2137C38.9091 44.6959 38.8048 43.7512 39.3226 43.1044C39.8404 42.4572 40.7841 42.3529 41.4313 42.8707L48.0658 48.1787L52.95 45.3703L45.5404 39.1952C44.9029 38.665 44.8166 37.7188 45.3467 37.0813C45.8764 36.4443 46.8231 36.358 47.4601 36.8881L55.7224 43.7748L58.0408 42.4397L57.7983 36.6811C57.2425 32.5325 58.9813 28.4101 62.3389 25.9114L67.4491 22.1116L65.5187 19.0803L52.2406 27.0467C52.0623 27.1494 51.864 27.2126 51.6596 27.2337C51.6241 27.2337 51.5923 27.246 51.5568 27.2491C51.5209 27.2517 51.4978 27.2594 51.4695 27.2594C51.2836 27.2604 51.0997 27.226 50.9265 27.1587L35.7318 21.2989C35.4534 21.1931 35.1421 21.2291 34.8961 21.396C34.6485 21.5655 34.5021 21.8465 34.5046 22.146V23.7965L39.9041 27.846C40.5668 28.3438 40.7003 29.2839 40.2026 29.9465L40.1928 29.9594L25.1928 49.4599C24.805 49.9674 24.1366 50.1719 23.531 49.9679L19.314 48.5625L5.8351 49.5251C2.55462 49.7681 0.0128403 52.4943 0 55.7835V60.5419Z" fill="black"/>
<path d="M75.0005 51.5415H82.4995C83.3286 51.5415 84 52.2134 84 53.042C84 53.8706 83.3286 54.5415 82.4995 54.5415H75.0005C74.1714 54.5415 73.5 53.8706 73.5 53.042C73.5 52.2134 74.1714 51.5415 75.0005 51.5415Z" fill="black"/>
<path d="M84 62.0415C84 62.8701 83.3286 63.542 82.4995 63.542H63C62.1714 63.542 61.4995 62.8701 61.4995 62.0415C61.4995 61.2134 62.1714 60.542 63 60.542H82.4995C83.3286 60.542 84 61.2134 84 62.0415Z" fill="black"/>
<path d="M46.5 69.5415H82.4995C83.3286 69.5415 84 70.2134 84 71.042C84 71.8701 83.3286 72.5415 82.4995 72.5415H46.5C45.6714 72.5415 45 71.8701 45 71.042C45 70.2134 45.6714 69.5415 46.5 69.5415Z" fill="black"/>
</g>
<defs>
<clipPath id="clip0">
<rect width="84" height="84" fill="white" transform="matrix(-1 0 0 1 84 0)"/>
</clipPath>
</defs>
</svg>
