<?xml version="1.0" encoding="utf-8"?>
<!-- Generator: Adobe Illustrator 22.1.0, SVG Export Plug-In . SVG Version: 6.00 Build 0)  -->
<svg version="1.1" id="Layer_1" xmlns="http://www.w3.org/2000/svg" xmlns:xlink="http://www.w3.org/1999/xlink" x="0px" y="0px"
	 viewBox="0 0 800 800" style="enable-background:new 0 0 800 800;" xml:space="preserve">
<style type="text/css">
	.st0{display:none;}
	.st1{display:inline;fill:#232323;stroke:#000000;stroke-miterlimit:10;}
	.st2{display:inline;}
	.st3{fill:#FFFFFF;}
	.st4{fill:#27649B;}
</style>
<g id="Layer_3" class="st0">
	<rect class="st1" width="800" height="800"/>
</g>
<g id="Layer_1_1_" class="st0">
	<g class="st2">
		<path class="st3" d="M553.8,198.1c-1.2,2.6-2.5,5.5-4,8.3c-7.5,14.3-19.2,23-35.2,25.2c-8,1.1-16.1,1.3-24.1,1.3
			c-11.2-0.1-22.5-1.2-33.7-1.1c-21.4,0.2-33.7,8.9-39.1,29.7c-9.7,37.3-18.6,74.9-27.6,112.4c-5.1,20.9-9.2,42-18.9,61.5
			c-6.2,12.4-14.9,22.3-27.8,28.1c-1.3,0.6-2.7,2.2-3.1,3.6c-5.6,19.6-15.2,37.2-27.5,53.3c-13.3,17.5-27.4,34.4-40.9,51.8
			c-11.2,14.4-21.4,29.5-25.6,47.7c-1.2,5.1-1.4,10.4-2.1,15.9c2.7,0,4.3,0.1,5.9,0c30.4-1.2,59.5-8.1,86.9-21.4
			c33.9-16.4,64-37.9,87.2-68c14.9-19.3,24.1-41.8,33.4-64.2c10.5-25.2,21-50.5,32.5-75.3c8.9-19.3,22.1-35.7,38.6-49.4
			c10.6-8.8,20.9-18,31-27.3c12.3-11.3,24-23,31.5-38.3c6.1-12.4,7.2-25.1-0.4-37.2C578.7,235.7,566.2,217.1,553.8,198.1z
			 M502.8,297c6.4,10.7,12.9,21.4,19.2,31.9c-7.5,6.5-15.1,12.4-21.9,19.2c-17,17.1-28.3,38-37.9,59.8
			c-10.7,24.5-20.9,49.2-31.6,73.7c-3.2,7.3-7.3,14.3-11.2,22c-7.9-9.8-15.2-18.9-22.4-28.2c-0.6-0.8-0.8-2.8-0.3-3.7
			c17.6-30.7,29.1-64.2,43.6-96.3c13-28.9,29.8-55.1,55.7-74.4c1.8-1.3,3.6-2.6,5.4-3.8C501.7,297.1,502.1,297.2,502.8,297z
			 M467,574.6c-0.4-0.4-0.8-0.9-1.2-1.3c2.7-3.3,4.8-7.7,8.2-9.8c33.1-19.9,66.5-39.3,99.7-58.9c7.5-4.4,14.9-9.1,22.3-13.7
			c-0.1-0.1-0.2-0.3-0.3-0.4c-38.2,16.8-76.4,33.7-114.5,50.5c-0.4-0.4-0.7-0.8-1.1-1.2c6.9-21.3,13.3-42.8,20.7-63.9
			c9.1-26.3,25.9-46.7,49.6-61.6c11.8-7.4,23.1-15.6,34.2-23.9c14.8-11.2,28.1-23.9,35.6-41.3c9.1-21.1,8.1-41.2-7.6-59.8
			c-0.4,1.4-0.8,2.4-0.9,3.4c-1.8,14.4-7.3,27.5-16.7,38.2c-10.7,12.2-22,24.1-34.5,34.5c-27.5,23-48.5,50.7-63.5,83
			c-8.2,17.8-16.1,35.8-24.1,53.7c-9.8,22-19.3,44.3-34.5,63.1c-31.8,39.2-73,65-120.2,81.5c-32.7,11.5-66.8,13.7-101.2,12.8
			c-24.4-0.7-47.5-6.6-68.7-19.2c-0.6-0.4-1.3-0.4-2.2-0.7c-0.9,9.3,3.2,15.9,9.9,21.2c8.1,6.4,17.5,10.2,27.4,12.6
			c59.3,14.4,117.5,10.6,174.2-12c34-13.6,65.8-31.7,97.5-49.8C515.5,577.2,573,538.2,629.7,498c8.7-6.1,17.3-12.3,25.9-18.5
			C593.4,512.6,531.1,545.3,467,574.6z M325.8,465.2c-18.6-10.8-45.4-14-65.6-8.3c-6.7,1.9-12.4,4.4-13.7,12.2c-0.2,1.1-0.9,2-1.3,3
			c-8.9,19.4-23.2,34.5-38.9,48.5c-13.7,12.2-27.9,23.8-41,36.6c-16.4,16-24.5,35.4-20.5,58.9c0.5,2.9,1.5,4.4,4.4,5.1
			c17.1,3.9,34,8.5,51.2,11.8c10.1,2,20.6,2.1,30,2.9c2.3-11.6,3.5-22.3,6.5-32.6c6-21,19.4-37.8,33.3-54.1
			c11.1-13.2,22.5-26.2,33-39.8C313.4,496.4,321.1,481.7,325.8,465.2z M409,249.4c0.2-0.3,0.4-0.4,0.4-0.5c0.6-1.3,1.1-2.6,1.6-3.9
			c6.1-14.1,16.7-22.8,31.8-24.6c10-1.2,20.2-0.5,30.3-0.6c12.8-0.2,25.7,1,38.3-0.8c25-3.6,37.6-21.9,33.3-46.1
			c-2.3-13.1-7.6-25.1-15.1-36c-5.7-8.3-13.2-14.6-23.1-17.2c-17-4.4-30.6,1.8-41.3,14.7c-5,6-8.4,13.3-12.4,20.1
			c-6.8,11.7-13.4,23.5-20.5,36c7.3,2.4,14.8,4.9,22.2,7.4c3.6-7.3,6.1-13.8,9.8-19.7c4.4-7.2,9.1-14.5,14.9-20.7
			c6.8-7.2,14.4-6.5,21.1,0.7c7.1,7.7,11.8,16.9,14,27.1c1.7,7.7-1.3,14.1-8.3,18c-3,1.7-6.3,2.9-9.7,3.7c-12.5,3-25.1,1.6-37.7,0
			c-26.6-3.2-47.3-15.1-60-39.3c-6.1-11.6-16-17.4-28.7-19.3c-23.8-3.6-41.5,7.4-46.7,29c-0.6,2.5-1,5-1.4,7.5
			c-3.2,18.1-6.4,36.1-9.5,54.2c-0.1,0.7,0,1.3,0,1.7C345.7,230.7,377.3,238.5,409,249.4z M368.6,413.6c0.3-0.8,0.7-1.5,0.9-2.3
			c1.5-5.1,2.7-10.4,4.6-15.4c1.8-4.7,0-6.6-4.1-8.4c-25.6-11.4-52.6-15.7-80.4-14.8c-4,0.1-8.2,1.1-12,2.6
			c-11.8,4.6-16.7,16.5-12.1,27.4C301.3,391.9,334.8,400.9,368.6,413.6z M384.4,348.9c-1.9-0.9-3.4-1.7-5-2.4
			c-14.6-6.4-29.8-10.8-45.6-12.2c-12.7-1.1-25.6-2-38.2-0.8c-15.7,1.5-23.8,16.2-18.3,29c35.4-10.6,68.7-1.8,102,10.4
			C381,365.1,382.7,357.3,384.4,348.9z M288,322.9c34.5-10.8,67.3-2,99.8,9.3c1.8-8.2,3.5-16,5.4-24.8c-9-3-17.7-6.3-26.6-8.7
			c-19.5-5.1-39.5-7.8-59.6-5.3C290.9,295.4,283.3,308.1,288,322.9z M404.2,265.5c-1-0.6-1.6-1-2.1-1.2
			c-26.1-11.2-53.3-15.3-81.5-13.5c-4.4,0.3-8.9,2.2-12.8,4.5c-8.8,5.2-11.9,17-7.7,25c33.7-10.1,65.6-2.1,97.7,8.8
			C399.9,281.2,402,273.4,404.2,265.5z M360.9,432.2c-29.1-14.4-59.4-20.2-91-17.6c-15.4,1.3-23.6,14.9-20,29.5
			c5.8-1.8,11.6-4.2,17.5-5.3c23.9-4.5,46.5,0.4,67.9,11.1c3.2,1.6,5.8,1.6,8.8,0C351.6,445.9,356.8,440,360.9,432.2z"/>
		<path class="st3" d="M590.7,254.6c-12-19-24.5-37.6-36.9-56.5c-1.2,2.6-2.5,5.5-4,8.3c-7.5,14.3-19.2,23-35.2,25.2
			c-8,1.1-16.1,1.3-24.1,1.3c-11.2-0.1-22.5-1.2-33.7-1.1c-21.4,0.2-33.7,8.9-39.1,29.7c-9.7,37.3-18.6,74.9-27.6,112.4
			c-5.1,20.9-9.2,42-18.9,61.5c-6.2,12.4-14.9,22.3-27.8,28.1c-1.3,0.6-2.7,2.2-3.1,3.6c-5.6,19.6-15.2,37.2-27.5,53.3
			c-13.3,17.5-27.4,34.4-40.9,51.8c-11.2,14.4-21.4,29.5-25.6,47.7c-1.2,5.1-1.4,10.4-2.1,15.9c2.7,0,4.3,0.1,5.9,0
			c30.4-1.2,59.5-8.1,86.9-21.4c33.9-16.4,64-37.9,87.2-68c14.9-19.3,24.1-41.8,33.4-64.2c10.5-25.2,21-50.5,32.5-75.3
			c8.9-19.3,22.1-35.7,38.6-49.4c10.6-8.8,20.9-18,31-27.3c12.3-11.3,24-23,31.5-38.3C597.2,279.4,598.3,266.7,590.7,254.6z
			 M500.1,348.2c-17,17.1-28.3,38-37.9,59.8c-10.7,24.5-20.9,49.2-31.6,73.7c-3.2,7.3-7.3,14.3-11.2,22
			c-7.9-9.8-15.2-18.9-22.4-28.2c-0.6-0.8-0.8-2.8-0.3-3.7c17.6-30.7,29.1-64.2,43.6-96.3c13-28.9,29.8-55.1,55.7-74.4
			c1.8-1.3,3.6-2.6,5.4-3.8c0.2-0.2,0.6-0.1,1.3-0.2c6.4,10.7,12.9,21.4,19.2,31.9C514.5,335.5,506.9,341.4,500.1,348.2z"/>
		<path class="st3" d="M467,574.6c64.1-29.3,126.5-62,188.7-95.1c-8.6,6.2-17.3,12.3-25.9,18.5c-56.7,40.2-114.2,79.2-174.6,113.6
			c-31.8,18.1-63.5,36.3-97.5,49.8c-56.6,22.6-114.9,26.4-174.2,12c-9.9-2.4-19.3-6.1-27.4-12.6c-6.7-5.3-10.8-12-9.9-21.2
			c0.8,0.3,1.6,0.4,2.2,0.7c21.2,12.6,44.3,18.5,68.7,19.2c34.4,0.9,68.4-1.3,101.2-12.8c47.2-16.5,88.4-42.3,120.2-81.5
			c15.3-18.8,24.7-41.1,34.5-63.1c8-17.9,15.9-35.9,24.1-53.7c15-32.4,36.1-60,63.5-83c12.4-10.4,23.7-22.3,34.5-34.5
			c9.4-10.7,14.9-23.8,16.7-38.2c0.1-1,0.5-2,0.9-3.4c15.7,18.6,16.7,38.8,7.6,59.8c-7.5,17.4-20.8,30.1-35.6,41.3
			c-11.1,8.4-22.4,16.5-34.2,23.9c-23.7,14.9-40.5,35.3-49.6,61.6c-7.3,21.2-13.8,42.6-20.7,63.9c0.4,0.4,0.7,0.8,1.1,1.2
			c38.2-16.8,76.4-33.7,114.5-50.5c0.1,0.1,0.2,0.3,0.3,0.4c-7.4,4.6-14.8,9.3-22.3,13.7c-33.2,19.6-66.6,39.1-99.7,58.9
			c-3.5,2.1-5.5,6.5-8.2,9.8C466.2,573.7,466.6,574.2,467,574.6z"/>
		<path class="st3" d="M325.8,465.2c-4.7,16.4-12.4,31.1-22.7,44.3c-10.6,13.6-21.9,26.6-33,39.8c-13.8,16.4-27.2,33.1-33.3,54.1
			c-2.9,10.2-4.2,21-6.5,32.6c-9.4-0.8-19.9-0.9-30-2.9c-17.2-3.3-34.1-7.9-51.2-11.8c-2.9-0.7-3.9-2.2-4.4-5.1
			c-4-23.4,4.2-42.9,20.5-58.9c13.1-12.8,27.3-24.5,41-36.6c15.7-13.9,30-29.1,38.9-48.5c0.5-1,1.2-2,1.3-3
			c1.3-7.8,7-10.3,13.7-12.2C280.4,451.2,307.2,454.4,325.8,465.2z"/>
		<path class="st3" d="M409,249.4c-31.7-10.9-63.3-18.7-96.9-8.8c0-0.3-0.1-1,0-1.7c3.2-18.1,6.3-36.1,9.5-54.2
			c0.4-2.5,0.8-5,1.4-7.5c5.2-21.7,22.9-32.6,46.7-29c12.7,1.9,22.6,7.7,28.7,19.3c12.8,24.2,33.4,36.1,60,39.3
			c12.6,1.5,25.2,3,37.7,0c3.3-0.8,6.7-2,9.7-3.7c7-3.9,10-10.3,8.3-18c-2.2-10.2-6.9-19.4-14-27.1c-6.7-7.2-14.3-7.9-21.1-0.7
			c-5.8,6.1-10.4,13.5-14.9,20.7c-3.6,5.9-6.2,12.4-9.8,19.7c-7.4-2.5-14.9-5-22.2-7.4c7.1-12.5,13.8-24.3,20.5-36
			c4-6.8,7.4-14.1,12.4-20.1c10.6-12.9,24.3-19.1,41.3-14.7c9.9,2.6,17.4,9,23.1,17.2c7.6,10.9,12.8,23,15.1,36
			c4.3,24.2-8.3,42.5-33.3,46.1c-12.5,1.8-25.5,0.6-38.3,0.8c-10.1,0.1-20.3-0.6-30.3,0.6c-15.1,1.8-25.7,10.5-31.8,24.6
			c-0.6,1.3-1.1,2.6-1.6,3.9C409.4,249,409.2,249.1,409,249.4z"/>
		<path class="st3" d="M368.6,413.6c-33.7-12.7-67.3-21.6-103-11c-4.6-10.9,0.3-22.7,12.1-27.4c3.8-1.5,7.9-2.5,12-2.6
			c27.8-0.8,54.8,3.4,80.4,14.8c4.1,1.8,5.9,3.7,4.1,8.4c-1.9,5-3.1,10.3-4.6,15.4C369.2,412.1,368.9,412.8,368.6,413.6z"/>
		<path class="st3" d="M384.4,348.9c-1.8,8.3-3.4,16.2-5.1,24.1c-33.3-12.2-66.5-21-102-10.4c-5.6-12.9,2.6-27.5,18.3-29
			c12.6-1.2,25.5-0.3,38.2,0.8c15.8,1.4,31,5.8,45.6,12.2C381,347.2,382.5,348,384.4,348.9z"/>
		<path class="st3" d="M288,322.9c-4.6-14.8,3-27.5,19-29.4c20.2-2.5,40.1,0.2,59.6,5.3c8.9,2.3,17.6,5.7,26.6,8.7
			c-1.9,8.8-3.6,16.6-5.4,24.8C355.2,320.9,322.5,312.1,288,322.9z"/>
		<path class="st3" d="M404.2,265.5c-2.2,7.9-4.3,15.7-6.5,23.5c-32-10.9-63.9-18.9-97.7-8.8c-4.2-8-1-19.8,7.7-25
			c3.8-2.3,8.4-4.2,12.8-4.5c28.2-1.8,55.4,2.3,81.5,13.5C402.6,264.5,403.2,264.9,404.2,265.5z"/>
		<path class="st3" d="M360.9,432.2c-4.1,7.8-9.4,13.7-16.7,17.7c-3,1.6-5.6,1.6-8.8,0c-21.5-10.7-44-15.6-67.9-11.1
			c-6,1.1-11.7,3.5-17.5,5.3c-3.6-14.6,4.6-28.3,20-29.5C301.5,412,331.9,417.8,360.9,432.2z"/>
	</g>
</g>
<g id="Layer_4">
	<g>
		<path class="st4" d="M553.8,198.1c-1.2,2.6-2.5,5.5-4,8.3c-7.5,14.3-19.2,23-35.2,25.2c-8,1.1-16.1,1.3-24.1,1.3
			c-11.2-0.1-22.5-1.2-33.7-1.1c-21.4,0.2-33.7,8.9-39.1,29.7c-9.7,37.3-18.6,74.9-27.6,112.4c-5.1,20.9-9.2,42-18.9,61.5
			c-6.2,12.4-14.9,22.3-27.8,28.1c-1.3,0.6-2.7,2.2-3.1,3.6c-5.6,19.6-15.2,37.2-27.5,53.3c-13.3,17.5-27.4,34.4-40.9,51.8
			c-11.2,14.4-21.4,29.5-25.6,47.7c-1.2,5.1-1.4,10.4-2.1,15.9c2.7,0,4.3,0.1,5.9,0c30.4-1.2,59.5-8.1,86.9-21.4
			c33.9-16.4,64-37.9,87.2-68c14.9-19.3,24.1-41.8,33.4-64.2c10.5-25.2,21-50.5,32.5-75.3c8.9-19.3,22.1-35.7,38.6-49.4
			c10.6-8.8,20.9-18,31-27.3c12.3-11.3,24-23,31.5-38.3c6.1-12.4,7.2-25.1-0.4-37.2C578.7,235.7,566.2,217.1,553.8,198.1z
			 M502.8,297c6.4,10.7,12.9,21.4,19.2,31.9c-7.5,6.5-15.1,12.4-21.9,19.2c-17,17.1-28.3,38-37.9,59.8
			c-10.7,24.5-20.9,49.2-31.6,73.7c-3.2,7.3-7.3,14.3-11.2,22c-7.9-9.8-15.2-18.9-22.4-28.2c-0.6-0.8-0.8-2.8-0.3-3.7
			c17.6-30.7,29.1-64.2,43.6-96.3c13-28.9,29.8-55.1,55.7-74.4c1.8-1.3,3.6-2.6,5.4-3.8C501.7,297.1,502.1,297.2,502.8,297z
			 M467,574.6c-0.4-0.4-0.8-0.9-1.2-1.3c2.7-3.3,4.8-7.7,8.2-9.8c33.1-19.9,66.5-39.3,99.7-58.9c7.5-4.4,14.9-9.1,22.3-13.7
			c-0.1-0.1-0.2-0.3-0.3-0.4c-38.2,16.8-76.4,33.7-114.5,50.5c-0.4-0.4-0.7-0.8-1.1-1.2c6.9-21.3,13.3-42.8,20.7-63.9
			c9.1-26.3,25.9-46.7,49.6-61.6c11.8-7.4,23.1-15.6,34.2-23.9c14.8-11.2,28.1-23.9,35.6-41.3c9.1-21.1,8.1-41.2-7.6-59.8
			c-0.4,1.4-0.8,2.4-0.9,3.4c-1.8,14.4-7.3,27.5-16.7,38.2c-10.7,12.2-22,24.1-34.5,34.5c-27.5,23-48.5,50.7-63.5,83
			c-8.2,17.8-16.1,35.8-24.1,53.7c-9.8,22-19.3,44.3-34.5,63.1c-31.8,39.2-73,65-120.2,81.5c-32.7,11.5-66.8,13.7-101.2,12.8
			c-24.4-0.7-47.5-6.6-68.7-19.2c-0.6-0.4-1.3-0.4-2.2-0.7c-0.9,9.3,3.2,15.9,9.9,21.2c8.1,6.4,17.5,10.2,27.4,12.6
			c59.3,14.4,117.5,10.6,174.2-12c34-13.6,65.8-31.7,97.5-49.8C515.5,577.2,573,538.2,629.7,498c8.7-6.1,17.3-12.3,25.9-18.5
			C593.4,512.6,531.1,545.3,467,574.6z M325.8,465.2c-18.6-10.8-45.4-14-65.6-8.3c-6.7,1.9-12.4,4.4-13.7,12.2c-0.2,1.1-0.9,2-1.3,3
			c-8.9,19.4-23.2,34.5-38.9,48.5c-13.7,12.2-27.9,23.8-41,36.6c-16.4,16-24.5,35.4-20.5,58.9c0.5,2.9,1.5,4.4,4.4,5.1
			c17.1,3.9,34,8.5,51.2,11.8c10.1,2,20.6,2.1,30,2.9c2.3-11.6,3.5-22.3,6.5-32.6c6-21,19.4-37.8,33.3-54.1
			c11.1-13.2,22.5-26.2,33-39.8C313.4,496.4,321.1,481.7,325.8,465.2z M409,249.4c0.2-0.3,0.4-0.4,0.4-0.5c0.6-1.3,1.1-2.6,1.6-3.9
			c6.1-14.1,16.7-22.8,31.8-24.6c10-1.2,20.2-0.5,30.3-0.6c12.8-0.2,25.7,1,38.3-0.8c25-3.6,37.6-21.9,33.3-46.1
			c-2.3-13.1-7.6-25.1-15.1-36c-5.7-8.3-13.2-14.6-23.1-17.2c-17-4.4-30.6,1.8-41.3,14.7c-5,6-8.4,13.3-12.4,20.1
			c-6.8,11.7-13.4,23.5-20.5,36c7.3,2.4,14.8,4.9,22.2,7.4c3.6-7.3,6.1-13.8,9.8-19.7c4.4-7.2,9.1-14.5,14.9-20.7
			c6.8-7.2,14.4-6.5,21.1,0.7c7.1,7.7,11.8,16.9,14,27.1c1.7,7.7-1.3,14.1-8.3,18c-3,1.7-6.3,2.9-9.7,3.7c-12.5,3-25.1,1.6-37.7,0
			c-26.6-3.2-47.3-15.1-60-39.3c-6.1-11.6-16-17.4-28.7-19.3c-23.8-3.6-41.5,7.4-46.7,29c-0.6,2.5-1,5-1.4,7.5
			c-3.2,18.1-6.4,36.1-9.5,54.2c-0.1,0.7,0,1.3,0,1.7C345.7,230.7,377.3,238.5,409,249.4z M368.6,413.6c0.3-0.8,0.7-1.5,0.9-2.3
			c1.5-5.1,2.7-10.4,4.6-15.4c1.8-4.7,0-6.6-4.1-8.4c-25.6-11.4-52.6-15.7-80.4-14.8c-4,0.1-8.2,1.1-12,2.6
			c-11.8,4.6-16.7,16.5-12.1,27.4C301.3,391.9,334.8,400.9,368.6,413.6z M384.4,348.9c-1.9-0.9-3.4-1.7-5-2.4
			c-14.6-6.4-29.8-10.8-45.6-12.2c-12.7-1.1-25.6-2-38.2-0.8c-15.7,1.5-23.8,16.2-18.3,29c35.4-10.6,68.7-1.8,102,10.4
			C381,365.1,382.7,357.3,384.4,348.9z M288,322.9c34.5-10.8,67.3-2,99.8,9.3c1.8-8.2,3.5-16,5.4-24.8c-9-3-17.7-6.3-26.6-8.7
			c-19.5-5.1-39.5-7.8-59.6-5.3C290.9,295.4,283.3,308.1,288,322.9z M404.2,265.5c-1-0.6-1.6-1-2.1-1.2
			c-26.1-11.2-53.3-15.3-81.5-13.5c-4.4,0.3-8.9,2.2-12.8,4.5c-8.8,5.2-11.9,17-7.7,25c33.7-10.1,65.6-2.1,97.7,8.8
			C399.9,281.2,402,273.4,404.2,265.5z M360.9,432.2c-29.1-14.4-59.4-20.2-91-17.6c-15.4,1.3-23.6,14.9-20,29.5
			c5.8-1.8,11.6-4.2,17.5-5.3c23.9-4.5,46.5,0.4,67.9,11.1c3.2,1.6,5.8,1.6,8.8,0C351.6,445.9,356.8,440,360.9,432.2z"/>
		<path class="st4" d="M590.7,254.6c-12-19-24.5-37.6-36.9-56.5c-1.2,2.6-2.5,5.5-4,8.3c-7.5,14.3-19.2,23-35.2,25.2
			c-8,1.1-16.1,1.3-24.1,1.3c-11.2-0.1-22.5-1.2-33.7-1.1c-21.4,0.2-33.7,8.9-39.1,29.7c-9.7,37.3-18.6,74.9-27.6,112.4
			c-5.1,20.9-9.2,42-18.9,61.5c-6.2,12.4-14.9,22.3-27.8,28.1c-1.3,0.6-2.7,2.2-3.1,3.6c-5.6,19.6-15.2,37.2-27.5,53.3
			c-13.3,17.5-27.4,34.4-40.9,51.8c-11.2,14.4-21.4,29.5-25.6,47.7c-1.2,5.1-1.4,10.4-2.1,15.9c2.7,0,4.3,0.1,5.9,0
			c30.4-1.2,59.5-8.1,86.9-21.4c33.9-16.4,64-37.9,87.2-68c14.9-19.3,24.1-41.8,33.4-64.2c10.5-25.2,21-50.5,32.5-75.3
			c8.9-19.3,22.1-35.7,38.6-49.4c10.6-8.8,20.9-18,31-27.3c12.3-11.3,24-23,31.5-38.3C597.2,279.4,598.3,266.7,590.7,254.6z
			 M500.1,348.2c-17,17.1-28.3,38-37.9,59.8c-10.7,24.5-20.9,49.2-31.6,73.7c-3.2,7.3-7.3,14.3-11.2,22
			c-7.9-9.8-15.2-18.9-22.4-28.2c-0.6-0.8-0.8-2.8-0.3-3.7c17.6-30.7,29.1-64.2,43.6-96.3c13-28.9,29.8-55.1,55.7-74.4
			c1.8-1.3,3.6-2.6,5.4-3.8c0.2-0.2,0.6-0.1,1.3-0.2c6.4,10.7,12.9,21.4,19.2,31.9C514.5,335.5,506.9,341.4,500.1,348.2z"/>
		<path class="st4" d="M467,574.6c64.1-29.3,126.5-62,188.7-95.1c-8.6,6.2-17.3,12.3-25.9,18.5c-56.7,40.2-114.2,79.2-174.6,113.6
			c-31.8,18.1-63.5,36.3-97.5,49.8c-56.6,22.6-114.9,26.4-174.2,12c-9.9-2.4-19.3-6.1-27.4-12.6c-6.7-5.3-10.8-12-9.9-21.2
			c0.8,0.3,1.6,0.4,2.2,0.7c21.2,12.6,44.3,18.5,68.7,19.2c34.4,0.9,68.4-1.3,101.2-12.8c47.2-16.5,88.4-42.3,120.2-81.5
			c15.3-18.8,24.7-41.1,34.5-63.1c8-17.9,15.9-35.9,24.1-53.7c15-32.4,36.1-60,63.5-83c12.4-10.4,23.7-22.3,34.5-34.5
			c9.4-10.7,14.9-23.8,16.7-38.2c0.1-1,0.5-2,0.9-3.4c15.7,18.6,16.7,38.8,7.6,59.8c-7.5,17.4-20.8,30.1-35.6,41.3
			c-11.1,8.4-22.4,16.5-34.2,23.9c-23.7,14.9-40.5,35.3-49.6,61.6c-7.3,21.2-13.8,42.6-20.7,63.9c0.4,0.4,0.7,0.8,1.1,1.2
			c38.2-16.8,76.4-33.7,114.5-50.5c0.1,0.1,0.2,0.3,0.3,0.4c-7.4,4.6-14.8,9.3-22.3,13.7c-33.2,19.6-66.6,39.1-99.7,58.9
			c-3.5,2.1-5.5,6.5-8.2,9.8C466.2,573.7,466.6,574.2,467,574.6z"/>
		<path class="st4" d="M325.8,465.2c-4.7,16.4-12.4,31.1-22.7,44.3c-10.6,13.6-21.9,26.6-33,39.8c-13.8,16.4-27.2,33.1-33.3,54.1
			c-2.9,10.2-4.2,21-6.5,32.6c-9.4-0.8-19.9-0.9-30-2.9c-17.2-3.3-34.1-7.9-51.2-11.8c-2.9-0.7-3.9-2.2-4.4-5.1
			c-4-23.4,4.2-42.9,20.5-58.9c13.1-12.8,27.3-24.5,41-36.6c15.7-13.9,30-29.1,38.9-48.5c0.5-1,1.2-2,1.3-3
			c1.3-7.8,7-10.3,13.7-12.2C280.4,451.2,307.2,454.4,325.8,465.2z"/>
		<path class="st4" d="M409,249.4c-31.7-10.9-63.3-18.7-96.9-8.8c0-0.3-0.1-1,0-1.7c3.2-18.1,6.3-36.1,9.5-54.2
			c0.4-2.5,0.8-5,1.4-7.5c5.2-21.7,22.9-32.6,46.7-29c12.7,1.9,22.6,7.7,28.7,19.3c12.8,24.2,33.4,36.1,60,39.3
			c12.6,1.5,25.2,3,37.7,0c3.3-0.8,6.7-2,9.7-3.7c7-3.9,10-10.3,8.3-18c-2.2-10.2-6.9-19.4-14-27.1c-6.7-7.2-14.3-7.9-21.1-0.7
			c-5.8,6.1-10.4,13.5-14.9,20.7c-3.6,5.9-6.2,12.4-9.8,19.7c-7.4-2.5-14.9-5-22.2-7.4c7.1-12.5,13.8-24.3,20.5-36
			c4-6.8,7.4-14.1,12.4-20.1c10.6-12.9,24.3-19.1,41.3-14.7c9.9,2.6,17.4,9,23.1,17.2c7.6,10.9,12.8,23,15.1,36
			c4.3,24.2-8.3,42.5-33.3,46.1c-12.5,1.8-25.5,0.6-38.3,0.8c-10.1,0.1-20.3-0.6-30.3,0.6c-15.1,1.8-25.7,10.5-31.8,24.6
			c-0.6,1.3-1.1,2.6-1.6,3.9C409.4,249,409.2,249.1,409,249.4z"/>
		<path class="st4" d="M368.6,413.6c-33.7-12.7-67.3-21.6-103-11c-4.6-10.9,0.3-22.7,12.1-27.4c3.8-1.5,7.9-2.5,12-2.6
			c27.8-0.8,54.8,3.4,80.4,14.8c4.1,1.8,5.9,3.7,4.1,8.4c-1.9,5-3.1,10.3-4.6,15.4C369.2,412.1,368.9,412.8,368.6,413.6z"/>
		<path class="st4" d="M384.4,348.9c-1.8,8.3-3.4,16.2-5.1,24.1c-33.3-12.2-66.5-21-102-10.4c-5.6-12.9,2.6-27.5,18.3-29
			c12.6-1.2,25.5-0.3,38.2,0.8c15.8,1.4,31,5.8,45.6,12.2C381,347.2,382.5,348,384.4,348.9z"/>
		<path class="st4" d="M288,322.9c-4.6-14.8,3-27.5,19-29.4c20.2-2.5,40.1,0.2,59.6,5.3c8.9,2.3,17.6,5.7,26.6,8.7
			c-1.9,8.8-3.6,16.6-5.4,24.8C355.2,320.9,322.5,312.1,288,322.9z"/>
		<path class="st4" d="M404.2,265.5c-2.2,7.9-4.3,15.7-6.5,23.5c-32-10.9-63.9-18.9-97.7-8.8c-4.2-8-1-19.8,7.7-25
			c3.8-2.3,8.4-4.2,12.8-4.5c28.2-1.8,55.4,2.3,81.5,13.5C402.6,264.5,403.2,264.9,404.2,265.5z"/>
		<path class="st4" d="M360.9,432.2c-4.1,7.8-9.4,13.7-16.7,17.7c-3,1.6-5.6,1.6-8.8,0c-21.5-10.7-44-15.6-67.9-11.1
			c-6,1.1-11.7,3.5-17.5,5.3c-3.6-14.6,4.6-28.3,20-29.5C301.5,412,331.9,417.8,360.9,432.2z"/>
	</g>
</g>
<g id="Layer_2_1_" class="st0">
	<g class="st2">
		<path class="st3" d="M-144.5,736.7c0-219.6,0-439.2,0-658.9c219.6,0,439.2,0,658.9,0c0,219.6,0,439.2,0,658.9c-0.9,0-1.8,0-2.6,0
			c-217.9,0-435.7,0-653.6,0C-142.7,736.8-143.6,736.7-144.5,736.7z M-58.4,275.6c-13,4.4-24.9,10.4-34,20.8
			c-9.9,11.3-13.3,24.1-8.8,38.8c3.4,11.1,9.2,20.9,16.2,29.9c23.1,29.9,52.4,52,86.4,68c22.9,10.7,44.1,23.9,63.9,39.7
			c19.9,15.9,36.8,34.3,48.2,57.2c20.1,40.2,50.9,69.4,91.2,88.8c25.1,12.1,51.8,19.1,79.4,22.6c29.2,3.7,58.2,3.9,87.1-2.2
			c26-5.5,49.9-15.7,70.9-32.3c1.4-1.1,2.7-2.2,4-3.3c-0.9-0.5-1.5-0.4-2-0.3c-24.3,5.2-49,7.6-73.8,8.5
			c-26.6,0.9-53.1-0.3-79.6-2.7c-17.2-1.6-33.8-5.3-49.2-13.4c-16.3-8.6-30.8-19.9-44.4-32.2c-17.5-16-33.7-33.2-44.6-54.5
			c-8-15.6-18.3-29.4-30-42.3c-24.4-26.9-51.5-50.9-79.9-73.5c-21.3-17-42.4-34.2-60.8-54.3C-35.1,320.1-50.9,300.8-58.4,275.6z
			 M32.4,189c0.8,1.2,1.3,2,1.9,2.7c8.5,11.7,15.7,24.1,21.2,37.5c7.7,19,11.8,38.6,8.5,59.2c-0.1,0.9,0.6,2.4,1.3,3
			c4.8,3.8,9.6,7.8,14.7,11c18.5,11.7,38.6,17.5,60.7,15.3c11.9-1.2,23.5-0.3,34.4,4.9c19.4,9.2,31,30,29.8,53.4
			c-1.1,20.8-1.3,41.5,1.1,62.2c1.9,16.1,4.9,31.9,11.2,46.9c5.5,13.2,13.1,24.8,25.7,32.5c7.4,4.6,12,4,18.2-2.4
			c1.1-1.1,2-2.3,2.9-3.6c12.8-18.3,30.6-28.1,52.6-30.7c4.4-0.5,8.8-0.7,13.6-1c-8.8-10.3-14.4-21.9-18.2-34.4
			c-13.3,3-26.1,6-38.9,8.9c-5.3,1.2-9.5-1.1-10.5-5.7c-1-4.7,1.7-8.6,6.9-9.8c6.8-1.6,13.7-3.1,20.5-4.7c5.4-1.2,10.8-2.5,16.4-3.8
			c-2.6-7.3-5.1-14.1-7.6-21c-12.2,3-24,6-35.8,8.9c-1.9,0.5-3.9,0.9-5.8,0.7c-3.6-0.4-6.3-3.6-6.5-7.2c-0.2-4.1,2-7.3,6.4-8.4
			c10.6-2.7,21.3-5.3,31.9-7.9c1.4-0.4,2.8-0.8,4.4-1.2c-2.6-7.2-5.1-14-7.6-20.8c-2.3,0.5-4.2,0.9-6.1,1.3
			c-9.3,2.2-18.5,4.5-27.8,6.6c-4.8,1.1-8.7-1.3-9.9-5.8c-1.1-4.3,1.5-8.5,6.1-9.7c1.1-0.3,2.1-0.5,3.2-0.7c9.6-2.3,19.1-4.6,29-6.9
			c-2.8-7.8-5.5-15.2-8.2-22.8c-1,0.2-1.6,0.4-2.2,0.6c-12.3,3.4-24.5,6.9-36.8,10.2c-5,1.4-9.1-0.8-10.4-5.3
			c-1.3-4.3,1.3-8.6,6.2-10c4.8-1.4,9.7-2.7,14.6-4.1c7.7-2.2,15.4-4.3,23.2-6.5c-2.8-7.6-5.4-14.9-8-22.2
			c-7.4,0.8-14.5,1.7-21.7,2.2c-18.4,1.3-36.5-0.1-53.7-7.1c-7.5-3.1-14.5-7.7-21.6-11.7c-30.2-17-47.4-42.3-49.4-77.3
			c-0.3-5.7,0.2-11.4,0.2-17.1c0.1-7.4-3.8-12.7-11-14.4c-3.7-0.9-7.5-1.5-11.4-1.8C68.8,169.6,50.3,177.9,32.4,189z M181.6,523.8
			c0.5,0.6,0.9,1.2,1.4,1.8c14.1,16.9,30.1,31.6,47.8,44.5c13.5,9.9,28.1,17.7,44.8,20.4c11.7,1.9,23.5,3,35.3,3.9
			c41.1,3,82,2.1,122.7-5.4c10.7-2,21.3-4.3,30.9-9.7c10.1-5.6,11-11,3.7-20c-6.1-7.4-13.8-12.9-22.4-16.9
			c-9.5-4.4-19.1-8.8-28.7-13.2c-18.8-8.7-37.6-17.4-56.4-26c-3.9-1.8-7.7-4.2-11.8-4.8c-8.8-1.2-17.7-2.4-26.5-1.9
			c-19.1,1-34.9,8.7-45.9,25c-5.3,7.7-12.5,12.8-21.6,15.2c-11,3-22,2.2-32.9,0.1C208.1,534.1,194.9,529.2,181.6,523.8z
			 M221.3,520.6c-0.8-1.2-1-1.6-1.2-1.9c-10.2-11.6-16.7-25.2-21.3-39.7c-8.5-27.3-10.6-55.5-10.3-83.9c0.1-9.5,1-19.1,0.2-28.6
			c-1.5-18.4-15.9-31.9-34.4-32.9c-6.3-0.3-12.7,0.4-19.1,0.6c-27.1,0.7-51-8.1-72.5-24.2c-1.3-1-2.5-1.9-4-3
			c-4.2,9.9-9.4,18.7-16.5,26.1c-7.1,7.2-14.7,13.8-22.4,20.9c5.5,4.6,11.2,9.6,17.2,14.3c30,23.4,58.9,48,85.4,75.3
			c15.2,15.7,29.7,32,40.5,51.3c0.6,1.1,1.7,2,2.8,2.5c12,5.7,23.8,11.6,36,16.9C207.7,516.8,214.2,518.3,221.3,520.6z M19.5,198.4
			c-0.6,0.3-0.8,0.3-1,0.5c-23.7,18.4-43.7,40.2-61.6,64.1c-0.7,0.9-0.9,2.4-0.8,3.7c0.6,8.5,4.1,16.1,8.2,23.4
			c8.2,14.3,18.7,26.8,29.9,38.7c4.3,4.5,8.8,8.7,13.5,13.3c3.6-2.7,7.3-5.2,10.8-8c22.7-18.4,34.2-41.6,29.9-71.3
			C45,238.5,33.8,217.9,19.5,198.4z M253.1,282.5c-3.3-9.1-6.1-17.9-9.7-26.2c-2.3-5.2-6.9-8.4-13.1-8.4
			c-21.1,0.1-35.1,12.6-48.5,27.5C204.9,286.1,228.5,285.9,253.1,282.5z"/>
		<path d="M-144.5,736.7c0.9,0,1.8,0,2.6,0c217.9,0,435.7,0,653.6,0c0.9,0,1.8,0,2.6,0c0,17.6,0,35.1,0,52.7
			c-219.6,0-439.2,0-658.9,0C-144.5,771.9-144.5,754.3-144.5,736.7z M-50.8,759c-0.3-0.9-0.3-2.2-0.7-2.3c-1.9-0.6-4-1.4-5.9-1.3
			c-2.2,0.1-3.9,1.4-4.1,4c-0.2,2.4,1.1,3.7,3.1,4.4c1.4,0.6,3,0.8,4.3,1.5c0.8,0.4,1.7,1.4,1.7,2.1c-0.1,0.9-1,2.2-1.7,2.3
			c-1.7,0.3-3.6,0-5.4,0.1c-0.9,0.1-1.7,0.5-2.5,0.7c0.1,0.6,0.3,1.1,0.4,1.7c3-0.2,6.1,0.1,8.8-0.7c1.3-0.4,2.9-2.7,2.9-4.2
			c0-1.4-1.6-3.1-2.9-4.2c-1.1-0.9-2.9-0.9-4.2-1.6c-0.9-0.5-1.4-1.6-2.1-2.5c1-0.6,2-1.7,2.9-1.6C-54.6,757.5-52.9,758.3-50.8,759z
			 M-16.5,755.5c0,5.5,0,11.1,0,16.9c4.4-0.4,0.8-4.7,3.1-5.8c2.8,1.3,2.4,6.4,7.3,5.6c-1.9-2.7-3.6-5.1-5.9-8.4
			c1.8-1.4,3.6-2.8,5.4-4.1c-0.3-0.4-0.6-0.7-0.9-1.1c-2.1,1.4-4.2,2.8-6.3,4.3C-15.1,755.5-15.1,755.5-16.5,755.5z M-29.5,765.7
			c0-4.1-2.5-6.7-6.2-6.5c-3.5,0.1-5.8,2.8-5.7,6.7c0,3.9,2.4,6.5,5.9,6.6C-31.9,772.4-29.5,769.7-29.5,765.7z M-28,765.8
			c0,4.6,3.7,7.7,7.8,6.4c0.6-0.2,1-0.9,1.4-1.4c-0.6-0.2-1.2-0.5-1.8-0.7c-1.5-0.6-3.8-0.7-4.3-1.8c-0.7-1.4-0.7-3.7,0-5.2
			c0.5-1,2.7-1.2,4.1-1.7c0.7-0.3,1.3-0.5,2-0.8c-0.5-0.4-1-1.1-1.6-1.3C-24.5,758.1-28,761.1-28,765.8z M-101.7,766.4
			c0.4-5.2-2.3-8.3-6-7.1c-2.7,0.9-4.2,3.9-3.9,7.5c0.3,3,2.3,5.3,5.1,5.4c1.6,0.1,3.2-0.5,4.8-0.8c-0.1-0.3-0.1-0.5-0.2-0.8
			c-6.6,0.7-7.6,0.2-8.3-4.3C-107.2,766.4-104.4,766.4-101.7,766.4z M-110.9,755.5c-0.4-0.1-0.7-0.2-1.1-0.3
			c-1.8,5-3.7,10.1-5.7,15.6c-2.1-5.6-4-10.7-5.8-15.7c-0.4,0.2-0.8,0.3-1.2,0.5c1.9,5.3,3.7,10.6,5.7,15.8c0.1,0.3,2.4,0.3,2.5,0.1
			C-114.5,766.1-112.7,760.8-110.9,755.5z M-70.7,765.8c0-4-2.5-6.8-6-6.7c-3.4,0-5.8,2.7-5.9,6.5c0,4,2.4,6.7,6,6.7
			C-73.1,772.3-70.7,769.7-70.7,765.8z M-42.3,771.4c-5.5-2.6-2.4-6.8-3.3-9.9c1.3-0.4,2.3-0.6,3.2-0.9c0-0.3,0.1-0.5,0.1-0.8
			c-1-0.4-2.1-0.8-3.3-1.3c0-0.7,0.1-1.5-0.1-2.2c-0.1-0.5-0.7-0.8-1.1-1.2c-0.3,0.4-0.9,0.7-0.9,1.1c0,4.4-0.1,8.8,0.3,13.1
			c0.1,1,1.7,2.1,2.9,2.7C-44.1,772.3-43.1,771.7-42.3,771.4z M486.2,765.4c0.3-0.2,0.6-0.4,0.9-0.6c-1-0.8-1.9-2.2-2.9-2.2
			s-2.1,1.3-2.7,2.4c-0.5,0.9-0.7,2.2-0.6,3.3c0.1,1,0.4,2.4,1.1,2.8c0.9,0.5,2.4,0.5,3.3,0.1c0.7-0.3,1.1-1.7,1.2-2.7
			C486.7,767.5,486.3,766.4,486.2,765.4z M448.5,768.2c0.1,0.3,0.2,0.5,0.3,0.8c-1.2,0.6-2.3,1.3-3.5,1.9c1.3,0.4,3.1,0.4,3.5-0.3
			c0.9-1.7,1.4-3.8,1.3-5.7c0-0.8-1.6-2.1-2.6-2.4c-0.8-0.2-2.4,0.9-2.7,1.6c-0.3,1,0.3,2.4,1,3.3
			C446.3,768.1,447.6,768,448.5,768.2z M-90.4,760.3c-2.8-1.8-5.8-1.5-7.7,0.9c-2.3,2.8-1.9,7.7,0.8,9.9c2.1,1.7,5.3,1.7,7-0.1
			c-5.9,0-7.7-1.1-7.9-4.8C-98.5,762.2-96.7,760.9-90.4,760.3z M430.9,771.6c0.4,0,0.7,0,1.1-0.1c-0.1-1.7,0-3.5-0.4-5.2
			c-0.1-0.5-1.3-1.2-2-1.2c-2.5,0-4.9,0.2-7.6,0.3c0.1,2.1,0.2,4.1,0.3,6.1c0.3,0,0.6,0,1,0c0.1-1-0.1-2.2,0.2-3.1
			c0.3-0.8,1.1-1.4,1.7-2c0.5,0.7,1.2,1.3,1.4,2.1c0.3,1,0.2,2.1,0.3,3.2c1.9-4.7,1.9-4.7,3.5-4.9
			C430.6,768.3,430.8,769.9,430.9,771.6z M495.3,767.1c-0.2-2.3-0.5-4.7-3.4-4.6c-3,0.1-3.2,2.5-3.2,4.7s0.4,4.4,3.2,4.4
			C494.9,771.7,495.1,769.3,495.3,767.1z M-84.7,772.5c0.2-0.2,0.4-0.4,0.6-0.6c-3.2-3.9-3.1-10.5-0.3-11.9c-0.9-1.6-1.8-3.1-2.9-5
			c0,5-0.2,9.7,0.1,14.3C-87.2,770.4-85.6,771.4-84.7,772.5z M459.3,763.8c1.5,0.3,2.8,0.6,4.2,0.9c-0.8,1-1.7,2.1-2.5,3.1
			s-1.5,2.1-2.6,3.6c2.9,0,5,0,7,0c0-0.2,0-0.4,0.1-0.6c-1.6-0.2-3.1-0.4-5.2-0.7c1.3-1,2.2-1.7,3-2.4c1.4-1.2,2.6-2.7,0.8-4.4
			C462.4,761.7,460.7,762.2,459.3,763.8z M466.7,763.8c1.5,0.3,2.7,0.6,4,0.8c-0.7,1-1.4,2-2,3c-0.8,1.2-1.7,2.4-2.7,3.8
			c2.9,0,4.8,0,6.8,0c0-0.2,0-0.4,0-0.6c-1.5-0.1-3-0.3-5.2-0.5c1.3-1.1,2.2-1.7,3-2.4c1.4-1.2,2.8-2.7,1.1-4.4
			C469.8,761.7,468,762,466.7,763.8z M452.9,770.3c1.6-1.3,2.8-1.9,3.5-2.9c0.7-0.9,1.3-2.2,1.1-3.1c-0.1-0.7-1.5-1.6-2.4-1.7
			c-1-0.1-2,0.7-3.2,1.2c1.8,0.4,3.1,0.6,4.3,0.8c-0.8,1.1-1.5,2.1-2.3,3.2c-0.8,1.1-1.6,2.2-2.6,3.6c2.8,0,4.8,0,6.9,0
			c0-0.2,0-0.5,0-0.7C456.7,770.5,455.2,770.4,452.9,770.3z M474,770.4c-0.1,0.2-0.2,0.5-0.3,0.7c1.3,0.1,2.8,0.5,3.9,0.1
			c0.8-0.3,1.9-2.2,1.6-2.7c-0.8-1.6-2.2-2.9-3.4-4.4c0.6-0.2,1.7-0.5,2.8-0.8c0-0.2-0.1-0.4-0.1-0.5c-1.4,0-2.9,0-4.3,0
			c-0.1,1.4-0.3,2.6-0.3,3.5c1.5,0.5,2.7,0.7,3.8,1.3c0.3,0.2,0.2,1.8-0.1,2C476.5,769.9,475.3,770.1,474,770.4z M346.4,771.5
			c0-0.3,0.1-0.5,0.1-0.8c-1.4-0.4-2.7-0.8-4.1-1.2c0.1-0.3,0.2-0.6,0.3-0.9c1.4-0.1,2.8-0.2,4.1-0.3c0.2-0.3,0.3-0.5,0.5-0.8
			c-1-0.8-2-2.1-3-2.3c-0.9-0.1-2.7,1-2.9,1.9c-0.3,1.1,0.2,3,1,3.7C343.3,771.5,345,771.3,346.4,771.5z M373.2,764.3
			c1.6-0.2,2.9-0.4,4.2-0.6c-1.7-1.4-3.5-1.9-4.8,0c-1.4,2,0.3,2.9,1.8,3.7c0.9,0.5,1.6,1.1,2.5,1.6c-0.1,0.3-0.2,0.6-0.3,1
			c-1.4,0.1-2.9,0.1-4.8,0.2c2.1,1.8,4.3,2.4,5.6,0.3C379.6,766.5,374.4,767.2,373.2,764.3z M333.7,762.3c-0.3,0.1-0.7,0.3-1,0.4
			c1.1,3,2.3,6.1,3.4,9.1c0.3-0.1,0.7-0.1,1-0.2c1.1-3,2.1-6,3.2-9c-0.3-0.1-0.6-0.3-0.9-0.4c-0.9,2.1-1.8,4.3-2.8,6.9
			C335.4,766.6,334.5,764.5,333.7,762.3z M402.2,771.8c0.3-0.2,0.6-0.3,0.9-0.5c-1.6-1.9-2.9-3.9-1-6.3c-0.8,0.7-1.7,1.4-2.9,2.4
			c-0.2-1.9-0.3-3.4-0.4-4.8c-0.2,0-0.5,0.1-0.7,0.1c0,3,0,5.9,0,8.9c0.2,0,0.4,0,0.7,0c0.2-1,0.3-1.9,0.6-3.4
			C400.5,769.6,401.4,770.7,402.2,771.8z M-68.4,760c0,3.7,0,7.9,0,12.1c2.4-3.9-2-10.2,4.8-12.7C-65.1,759.6-66.6,759.8-68.4,760z
			 M361.9,772.1c0.5,0,1,0,1.5,0c0.9-1.3,2.6-2.6,2.4-3.8c-0.1-1.2-1.9-2.9-3.2-3.1c-0.8-0.2-2.9,1.8-2.9,2.9
			C359.6,769.4,361.1,770.8,361.9,772.1z M390.3,769c0-0.5,0-1,0-1.5c-1.3-0.8-2.7-2.3-4-2.2c-1.1,0.1-3,2.1-2.9,3
			c0.2,1.3,1.9,3,3.1,3.2C387.7,771.6,389.1,769.9,390.3,769z M418.2,764.5c-0.5,0-1,0-1.5,0c-0.8,1.3-2.3,2.7-2.2,3.9
			c0.1,1.1,2.1,3.1,2.9,2.9c1.3-0.2,3-1.9,3.2-3.1C420.7,767.2,419,765.8,418.2,764.5z M441.9,762.7c-0.4-0.2-0.8-0.5-1.1-0.7
			c-0.7,0.9-1.3,1.8-2,2.7c2.2,0.8,2.5,3.7,0.7,6.8c1.2,0,2.4,0,3.1,0c-0.3-1.5-0.6-2.9-0.7-4.3
			C441.8,765.7,441.9,764.2,441.9,762.7z M353.5,771.2c-1.3-1-2.5-1.9-3.7-2.9c1.2-0.9,2.4-1.8,3.7-2.8c-1.2-0.9-3-1-4,0.6
			c-0.7,1.1-0.7,3.3-0.1,4.3C350.4,772.2,352.4,772.2,353.5,771.2z M396.4,771.1c-1.4-0.9-3.5-1.4-3.7-2.4c-0.7-3,2.3-2,4.3-2.6
			c-2.3-1.6-4.1-1.4-5.1,0.5c-0.5,1-0.5,2.9,0.2,3.8C393.2,772.2,395.1,772.1,396.4,771.1z M412.7,765.5c-1.6-1-3.4-0.8-4.4,1.1
			c-0.5,1-0.4,2.9,0.2,3.8c1.2,1.7,3.1,1.7,4.3,0.7c-1.3-0.9-2.5-1.9-3.8-2.8C410.2,767.5,411.3,766.6,412.7,765.5z M381.5,771.3
			c-0.3-1.4-1.3-3.4-0.7-4.2c1.7-2.2-0.3-2.1-1.1-3.1C378.3,767.7,379.2,770.8,381.5,771.3z M357.6,771.4c-0.3-2.5-0.5-4.9-0.8-7.3
			C354.6,767.2,355.5,770.6,357.6,771.4z M367.6,771.5c0.2,0,0.3,0,0.5,0c0.7-2,1.4-4.1,2-6.1c-0.6,0-1.6,0-2.6,0
			C367.6,767.5,367.6,769.5,367.6,771.5z M433.2,771.8c0.3,0.1,0.7,0.2,1,0.3c1-3.1,2-6.3,3-9.4c-0.3-0.1-0.6-0.2-0.9-0.3
			C435.3,765.5,434.3,768.7,433.2,771.8z"/>
		<path d="M-58.4,275.6c7.4,25.2,23.3,44.5,40.2,63C0.3,358.8,21.4,376,42.7,393c28.3,22.6,55.5,46.6,79.9,73.5
			c11.7,12.9,22,26.6,30,42.3c10.9,21.3,27.1,38.5,44.6,54.5c13.6,12.4,28,23.7,44.4,32.2c15.4,8.1,32,11.9,49.2,13.4
			c26.5,2.4,53,3.6,79.6,2.7c24.8-0.9,49.5-3.2,73.8-8.5c0.5-0.1,1.1-0.1,2,0.3c-1.3,1.1-2.7,2.3-4,3.3
			c-21,16.6-44.9,26.9-70.9,32.3c-28.9,6.1-58,5.9-87.1,2.2c-27.6-3.5-54.2-10.5-79.4-22.6c-40.3-19.4-71.1-48.6-91.2-88.8
			c-11.5-22.9-28.4-41.3-48.2-57.2c-19.7-15.8-41-28.9-63.9-39.7c-34-15.9-63.3-38.1-86.4-68c-7-9.1-12.8-18.9-16.2-29.9
			c-4.6-14.7-1.1-27.5,8.8-38.8C-83.3,286-71.4,280-58.4,275.6z M-13.1,401.6c6.1-0.1,9.4-2.3,11.2-6.3c2-4.5,1-8.6-2.3-12.1
			c-20.6-21.8-41.1-43.6-61.7-65.3c-4.7-4.9-10.7-5.4-15.2-1.3c-4.7,4.2-4.8,10.8-0.1,15.8c20.7,22,41.4,43.9,62.2,65.8
			C-17.2,400-14.3,400.9-13.1,401.6z"/>
		<path d="M32.4,189c18-11.1,36.4-19.4,57.7-18.2c3.8,0.2,7.6,0.9,11.4,1.8c7.1,1.7,11,7,11,14.4c0,5.7-0.5,11.4-0.2,17.1
			c1.9,35,19.2,60.3,49.4,77.3c7.1,4,14.1,8.6,21.6,11.7c17.2,7,35.3,8.4,53.7,7.1c7.2-0.5,14.4-1.4,21.7-2.2
			c2.6,7.3,5.3,14.6,8,22.2c-7.9,2.2-15.5,4.4-23.2,6.5c-4.9,1.4-9.7,2.7-14.6,4.1c-4.8,1.4-7.4,5.7-6.2,10
			c1.3,4.5,5.5,6.7,10.4,5.3c12.3-3.4,24.5-6.8,36.8-10.2c0.6-0.2,1.3-0.3,2.2-0.6c2.7,7.6,5.4,15,8.2,22.8
			c-9.9,2.4-19.4,4.6-29,6.9c-1.1,0.3-2.1,0.5-3.2,0.7c-4.6,1.3-7.2,5.4-6.1,9.7c1.2,4.5,5.1,6.9,9.9,5.8c9.3-2.2,18.6-4.4,27.8-6.6
			c1.9-0.5,3.8-0.9,6.1-1.3c2.5,6.9,4.9,13.6,7.6,20.8c-1.6,0.4-3,0.8-4.4,1.2c-10.6,2.6-21.3,5.2-31.9,7.9
			c-4.3,1.1-6.6,4.3-6.4,8.4c0.2,3.6,2.9,6.8,6.5,7.2c1.9,0.2,3.9-0.3,5.8-0.7c11.8-2.9,23.6-5.8,35.8-8.9c2.5,6.9,5,13.7,7.6,21
			c-5.6,1.3-11,2.6-16.4,3.8c-6.8,1.6-13.7,3.1-20.5,4.7c-5.2,1.2-7.9,5.1-6.9,9.8c1,4.6,5.2,6.9,10.5,5.7
			c12.8-2.9,25.6-5.9,38.9-8.9c3.9,12.5,9.4,24.1,18.2,34.4c-4.8,0.4-9.2,0.5-13.6,1c-21.9,2.7-39.7,12.4-52.6,30.7
			c-0.9,1.3-1.8,2.5-2.9,3.6c-6.2,6.3-10.8,6.9-18.2,2.4c-12.5-7.7-20.1-19.4-25.7-32.5c-6.3-15-9.4-30.8-11.2-46.9
			c-2.4-20.7-2.2-41.4-1.1-62.2c1.3-23.4-10.4-44.1-29.8-53.4c-10.9-5.2-22.6-6.1-34.4-4.9c-22.1,2.2-42.2-3.6-60.7-15.3
			c-5.2-3.3-9.9-7.2-14.7-11c-0.8-0.6-1.5-2.1-1.3-3c3.3-20.6-0.8-40.2-8.5-59.2c-5.4-13.4-12.7-25.8-21.2-37.5
			C33.7,191,33.2,190.2,32.4,189z"/>
		<path d="M181.6,523.8c13.2,5.4,26.4,10.3,40.4,13c11,2.1,22,2.9,32.9-0.1c9-2.5,16.3-7.5,21.6-15.2c11-16.2,26.9-24,45.9-25
			c8.8-0.4,17.7,0.7,26.5,1.9c4.1,0.6,7.9,3,11.8,4.8c18.8,8.6,37.6,17.4,56.4,26c9.6,4.4,19.1,8.8,28.7,13.2
			c8.7,4,16.3,9.5,22.4,16.9c7.3,8.9,6.4,14.4-3.7,20c-9.6,5.4-20.2,7.7-30.9,9.7c-40.6,7.5-81.6,8.4-122.7,5.4
			c-11.8-0.9-23.6-1.9-35.3-3.9c-16.7-2.8-31.2-10.6-44.8-20.4c-17.7-12.9-33.8-27.7-47.8-44.5C182.6,525.1,182.1,524.4,181.6,523.8
			z"/>
		<path d="M221.3,520.6c-7.1-2.3-13.5-3.9-19.5-6.5c-12.1-5.3-24-11.2-36-16.9c-1.1-0.5-2.3-1.5-2.8-2.5
			c-10.7-19.3-25.2-35.6-40.5-51.3C96,416.1,67,391.6,37.1,368.2c-6-4.7-11.6-9.7-17.2-14.3c7.6-7.1,15.3-13.7,22.4-20.9
			c7.2-7.3,12.3-16.2,16.5-26.1c1.4,1.1,2.7,2.1,4,3c21.5,16.1,45.4,24.9,72.5,24.2c6.4-0.2,12.7-0.9,19.1-0.6
			c18.4,0.9,32.9,14.4,34.4,32.9c0.8,9.5-0.1,19.1-0.2,28.6c-0.3,28.4,1.8,56.6,10.3,83.9c4.5,14.6,11,28.2,21.3,39.7
			C220.3,519,220.5,519.4,221.3,520.6z"/>
		<path d="M19.5,198.4c14.2,19.5,25.5,40.1,28.9,64.2c4.2,29.7-7.2,52.9-29.9,71.3c-3.5,2.8-7.2,5.4-10.8,8
			c-4.6-4.5-9.2-8.8-13.5-13.3c-11.2-11.9-21.8-24.4-29.9-38.7c-4.1-7.3-7.6-14.8-8.2-23.4c-0.1-1.2,0.1-2.7,0.8-3.7
			c17.9-23.9,37.9-45.8,61.6-64.1C18.7,198.7,19,198.6,19.5,198.4z"/>
		<path d="M253.1,282.5c-24.6,3.5-48.2,3.6-71.3-7.2c13.4-14.8,27.3-27.4,48.5-27.5c6.2,0,10.8,3.2,13.1,8.4
			C247,264.6,249.8,273.4,253.1,282.5z"/>
		<path class="st3" d="M-50.8,759c-2.2-0.7-3.8-1.5-5.5-1.6c-0.9-0.1-1.9,1-2.9,1.6c0.7,0.8,1.2,2,2.1,2.5c1.3,0.7,3.1,0.7,4.2,1.6
			c1.3,1.1,2.9,2.8,2.9,4.2c0,1.5-1.6,3.8-2.9,4.2c-2.8,0.8-5.9,0.6-8.8,0.7c-0.1-0.6-0.3-1.1-0.4-1.7c0.8-0.3,1.7-0.7,2.5-0.7
			c1.8-0.1,3.7,0.2,5.4-0.1c0.7-0.1,1.7-1.5,1.7-2.3c0.1-0.6-0.9-1.7-1.7-2.1c-1.3-0.7-2.9-1-4.3-1.5c-2-0.8-3.4-2.1-3.1-4.4
			c0.2-2.5,1.9-3.9,4.1-4c2-0.1,4,0.7,5.9,1.3C-51.1,756.8-51,758-50.8,759z"/>
		<path class="st3" d="M-16.5,755.5c1.4,0,1.4,0,2.7,7.4c2.1-1.4,4.2-2.9,6.3-4.3c0.3,0.4,0.6,0.7,0.9,1.1c-1.8,1.4-3.6,2.7-5.4,4.1
			c2.3,3.2,4,5.7,5.9,8.4c-4.9,0.9-4.5-4.3-7.3-5.6c-2.3,1.1,1.3,5.4-3.1,5.8C-16.5,766.6-16.5,761-16.5,755.5z"/>
		<path class="st3" d="M-29.5,765.7c0,4.1-2.4,6.7-6,6.7c-3.5,0-5.8-2.6-5.9-6.6c0-3.9,2.2-6.6,5.7-6.7
			C-32,759-29.6,761.6-29.5,765.7z M-31.8,765.8c-0.2-2.4-0.8-4.6-3.6-4.6s-3.6,2.2-3.6,4.6c0,2.3,0.8,4.3,3.4,4.4
			C-32.8,770.3-32.1,768.2-31.8,765.8z"/>
		<path class="st3" d="M-28,765.8c0-4.7,3.5-7.7,7.6-6.5c0.6,0.2,1.1,0.8,1.6,1.3c-0.7,0.3-1.3,0.5-2,0.8c-1.4,0.5-3.6,0.7-4.1,1.7
			c-0.7,1.4-0.8,3.8,0,5.2c0.6,1.1,2.8,1.2,4.3,1.8c0.6,0.2,1.2,0.5,1.8,0.7c-0.5,0.5-0.9,1.2-1.4,1.4
			C-24.3,773.5-27.9,770.4-28,765.8z"/>
		<path class="st3" d="M-101.7,766.4c-2.8,0-5.6,0-8.4,0c0.6,4.5,1.7,5,8.3,4.3c0.1,0.3,0.1,0.5,0.2,0.8c-1.6,0.3-3.2,0.9-4.8,0.8
			c-2.9-0.1-4.9-2.4-5.1-5.4c-0.3-3.7,1.2-6.7,3.9-7.5C-104,758.1-101.3,761.2-101.7,766.4z M-102.9,765c-0.1-2.5-0.6-4.5-3.4-4.5
			c-2.8-0.1-3.5,2-3.9,4.5C-107.8,765-105.5,765-102.9,765z"/>
		<path class="st3" d="M-110.9,755.5c-1.8,5.3-3.6,10.6-5.6,15.8c-0.1,0.3-2.3,0.2-2.5-0.1c-2-5.2-3.9-10.5-5.7-15.8
			c0.4-0.2,0.8-0.3,1.2-0.5c1.9,5.1,3.7,10.1,5.8,15.7c2-5.5,3.9-10.6,5.7-15.6C-111.6,755.3-111.2,755.4-110.9,755.5z"/>
		<path class="st3" d="M-70.7,765.8c0,3.8-2.4,6.5-5.9,6.5c-3.6,0-6.1-2.7-6-6.7c0-3.8,2.4-6.5,5.9-6.5S-70.7,761.9-70.7,765.8z
			 M-76.5,771c2.8-0.1,4.5-2.1,4.5-5.3c0-3.3-2-5.4-4.8-5.3c-2.7,0.1-4.4,2.3-4.3,5.5C-81.1,769.1-79.3,771.1-76.5,771z"/>
		<path class="st3" d="M-42.3,771.4c-0.8,0.3-1.8,1-2.2,0.7c-1.1-0.7-2.8-1.7-2.9-2.7c-0.4-4.3-0.3-8.7-0.3-13.1
			c0-0.4,0.6-0.7,0.9-1.1c0.4,0.4,1,0.7,1.1,1.2c0.2,0.7,0.1,1.5,0.1,2.2c1.2,0.5,2.2,0.9,3.3,1.3c0,0.3-0.1,0.5-0.1,0.8
			c-1,0.3-1.9,0.5-3.2,0.9C-44.7,764.6-47.8,768.8-42.3,771.4z"/>
		<path class="st3" d="M486.2,765.4c0.1,1,0.5,2,0.3,3c-0.1,1-0.5,2.3-1.2,2.7c-0.9,0.4-2.4,0.4-3.3-0.1c-0.7-0.4-1-1.8-1.1-2.8
			c-0.1-1.1,0.1-2.4,0.6-3.3c0.6-1,1.8-2.3,2.7-2.4c0.9,0,1.9,1.4,2.9,2.2C486.8,765,486.5,765.2,486.2,765.4z"/>
		<path class="st3" d="M448.5,768.2c-0.9-0.2-2.2-0.1-2.6-0.7c-0.7-0.9-1.3-2.4-1-3.3c0.2-0.8,1.9-1.8,2.7-1.6
			c1,0.2,2.6,1.5,2.6,2.4c0,1.9-0.5,4-1.3,5.7c-0.4,0.7-2.2,0.7-3.5,0.3c1.2-0.6,2.3-1.3,3.5-1.9
			C448.7,768.8,448.6,768.5,448.5,768.2z"/>
		<path class="st3" d="M-90.4,760.3c-6.4,0.6-8.1,1.9-7.8,5.9c0.3,3.7,2,4.8,7.9,4.8c-1.8,1.8-4.9,1.8-7,0.1c-2.7-2.2-3-7.1-0.8-9.9
			C-96.1,758.8-93.2,758.5-90.4,760.3z"/>
		<path class="st3" d="M430.9,771.6c-0.1-1.6-0.3-3.3-0.4-4.9c-1.6,0.2-1.6,0.2-3.5,4.9c-0.1-1.1,0-2.2-0.3-3.2
			c-0.2-0.8-0.9-1.4-1.4-2.1c-0.6,0.7-1.4,1.3-1.7,2c-0.3,0.9-0.2,2.1-0.2,3.1c-0.3,0-0.6,0-1,0c-0.1-2-0.2-4-0.3-6.1
			c2.7-0.1,5.1-0.3,7.6-0.3c0.7,0,1.9,0.7,2,1.2c0.3,1.7,0.3,3.4,0.4,5.2C431.6,771.5,431.3,771.5,430.9,771.6z"/>
		<path class="st3" d="M495.3,767.1c-0.2,2.2-0.4,4.6-3.4,4.6c-2.7,0-3.2-2.2-3.2-4.4c0-2.3,0.2-4.7,3.2-4.7
			C494.8,762.4,495.1,764.8,495.3,767.1z M489.1,767.1c1.3,1.4,2.1,2.3,2.9,3.2c0.6-1.1,1.8-2.2,1.8-3.2c0-1.1-1.1-2.2-1.7-3.3
			C491.2,764.7,490.3,765.7,489.1,767.1z"/>
		<path class="st3" d="M-84.7,772.5c-0.9-1.1-2.4-2.1-2.5-3.2c-0.3-4.6-0.1-9.2-0.1-14.3c1.1,1.9,2,3.4,2.9,5
			c-2.8,1.4-2.8,8,0.3,11.9C-84.3,772.1-84.5,772.3-84.7,772.5z"/>
		<path class="st3" d="M459.3,763.8c1.4-1.6,3.1-2.1,4.8-0.5c1.8,1.7,0.6,3.2-0.8,4.4c-0.8,0.7-1.7,1.3-3,2.4
			c2.1,0.3,3.6,0.5,5.2,0.7c0,0.2,0,0.4-0.1,0.6c-2.1,0-4.1,0-7,0c1.1-1.5,1.8-2.6,2.6-3.6c0.8-1.1,1.7-2.1,2.5-3.1
			C462.2,764.4,460.9,764.1,459.3,763.8z"/>
		<path class="st3" d="M466.7,763.8c1.3-1.7,3.1-2.1,4.8-0.4c1.7,1.7,0.4,3.2-1.1,4.4c-0.8,0.7-1.6,1.3-3,2.4
			c2.2,0.2,3.7,0.4,5.2,0.5c0,0.2,0,0.4,0,0.6c-1.9,0-3.8,0-6.8,0c1-1.4,1.8-2.6,2.7-3.8c0.7-1,1.4-2,2-3
			C469.4,764.3,468.2,764.1,466.7,763.8z"/>
		<path class="st3" d="M452.9,770.3c2.4,0.2,3.8,0.3,5.3,0.4c0,0.2,0,0.5,0,0.7c-2,0-4,0-6.9,0c1-1.4,1.8-2.5,2.6-3.6
			c0.8-1.1,1.5-2.1,2.3-3.2c-1.2-0.2-2.5-0.5-4.3-0.8c1.2-0.5,2.2-1.3,3.2-1.2c0.9,0.1,2.3,1,2.4,1.7c0.2,0.9-0.4,2.3-1.1,3.1
			C455.6,768.3,454.4,769,452.9,770.3z"/>
		<path class="st3" d="M474,770.4c1.2-0.3,2.5-0.4,3.6-1c0.3-0.1,0.4-1.8,0.1-2c-1.1-0.6-2.3-0.9-3.8-1.3c0.1-0.8,0.2-2.1,0.3-3.5
			c1.5,0,2.9,0,4.3,0c0,0.2,0.1,0.4,0.1,0.5c-1.1,0.3-2.2,0.6-2.8,0.8c1.2,1.5,2.6,2.8,3.4,4.4c0.3,0.6-0.8,2.4-1.6,2.7
			c-1.1,0.4-2.6,0-3.9-0.1C473.9,770.8,474,770.6,474,770.4z"/>
		<path class="st3" d="M346.4,771.5c-1.4-0.2-3.1,0.1-4-0.7c-0.8-0.7-1.3-2.6-1-3.7c0.2-0.9,2-2,2.9-1.9c1.1,0.1,2,1.5,3,2.3
			c-0.2,0.3-0.3,0.5-0.5,0.8c-1.4,0.1-2.8,0.2-4.1,0.3c-0.1,0.3-0.2,0.6-0.3,0.9c1.4,0.4,2.7,0.8,4.1,1.2
			C346.5,770.9,346.4,771.2,346.4,771.5z"/>
		<path class="st3" d="M373.2,764.3c1.3,2.9,6.5,2.2,4.1,6.2c-1.2,2.1-3.4,1.5-5.6-0.3c1.9-0.1,3.3-0.2,4.8-0.2
			c0.1-0.3,0.2-0.6,0.3-1c-0.8-0.5-1.6-1.1-2.5-1.6c-1.5-0.8-3.2-1.7-1.8-3.7c1.4-2,3.2-1.4,4.8,0
			C376.1,763.9,374.7,764.1,373.2,764.3z"/>
		<path class="st3" d="M333.7,762.3c0.9,2.2,1.7,4.3,2.8,7c1.1-2.6,2-4.8,2.8-6.9c0.3,0.1,0.6,0.3,0.9,0.4c-1.1,3-2.1,6-3.2,9
			c-0.3,0.1-0.7,0.1-1,0.2c-1.1-3-2.3-6.1-3.4-9.1C333,762.6,333.3,762.5,333.7,762.3z"/>
		<path class="st3" d="M402.2,771.8c-0.9-1.1-1.7-2.2-2.8-3.7c-0.2,1.5-0.4,2.4-0.6,3.4c-0.2,0-0.4,0-0.7,0c0-3,0-5.9,0-8.9
			c0.2,0,0.5-0.1,0.7-0.1c0.1,1.5,0.3,2.9,0.4,4.8c1.2-1,2-1.7,2.9-2.4c-1.8,2.4-0.6,4.4,1,6.3C402.8,771.5,402.5,771.7,402.2,771.8
			z"/>
		<path class="st3" d="M-68.4,760c1.8-0.2,3.3-0.4,4.8-0.6c-6.8,2.5-2.3,8.8-4.8,12.7C-68.4,767.9-68.4,763.7-68.4,760z"/>
		<path class="st3" d="M361.9,772.1c-0.8-1.3-2.3-2.7-2.2-3.9c0.1-1.1,2.1-3.1,2.9-2.9c1.3,0.2,3.1,1.9,3.2,3.1
			c0.1,1.1-1.6,2.5-2.4,3.8C362.9,772.2,362.4,772.2,361.9,772.1z M362.6,765.4c-0.8,1.5-1.6,2.4-1.5,3.2c0,0.6,1.1,1.2,1.8,1.8
			c0.6-0.7,1.8-1.4,1.8-2.1C364.7,767.6,363.6,766.8,362.6,765.4z"/>
		<path class="st3" d="M390.3,769c-1.3,0.9-2.6,2.6-3.8,2.5c-1.2-0.1-2.9-1.9-3.1-3.2c-0.1-0.9,1.8-2.9,2.9-3c1.3-0.1,2.6,1.4,4,2.2
			C390.3,768,390.3,768.5,390.3,769z M386.7,765.4c-1,1.4-1.9,2.1-2,2.9c0,0.7,0.9,1.4,1.5,2.1c0.7-0.6,1.9-1.1,2.1-1.8
			C388.5,767.9,387.6,766.9,386.7,765.4z"/>
		<path class="st3" d="M418.2,764.5c0.9,1.3,2.6,2.7,2.4,3.8c-0.2,1.2-1.9,2.9-3.2,3.1c-0.8,0.2-2.8-1.8-2.9-2.9
			c-0.1-1.2,1.4-2.6,2.2-3.9C417.1,764.6,417.7,764.6,418.2,764.5z M420.3,768.4c-1.3-1-2.1-1.9-2.9-1.9c-0.6,0-1.8,1.2-1.7,1.7
			c0.1,0.8,1,1.9,1.7,2.1C418.1,770.4,418.9,769.3,420.3,768.4z"/>
		<path class="st3" d="M441.9,762.7c0,1.5-0.1,3,0,4.5c0.1,1.4,0.4,2.8,0.7,4.3c-0.8,0-1.9,0-3.1,0c1.7-3.1,1.5-6-0.7-6.8
			c0.7-1,1.4-1.8,2-2.7C441.1,762.2,441.5,762.4,441.9,762.7z"/>
		<path class="st3" d="M353.5,771.2c-1.1,1-3,1.1-4.1-0.7c-0.7-1-0.6-3.2,0.1-4.3c1-1.6,2.8-1.5,4-0.6c-1.3,1-2.5,1.9-3.7,2.8
			C350.9,769.3,352.2,770.2,353.5,771.2z"/>
		<path class="st3" d="M396.4,771.1c-1.3,1.1-3.2,1.1-4.4-0.6c-0.6-0.9-0.7-2.8-0.2-3.8c1-1.8,2.8-2.1,5.1-0.5
			c-1.9,0.6-4.9-0.4-4.3,2.6C392.9,769.6,395,770.2,396.4,771.1z"/>
		<path class="st3" d="M412.7,765.5c-1.3,1-2.5,1.9-3.6,2.8c1.3,0.9,2.5,1.8,3.8,2.8c-1.2,1-3.1,1-4.3-0.7c-0.7-0.9-0.8-2.8-0.2-3.8
			C409.3,764.8,411.1,764.5,412.7,765.5z"/>
		<path class="st3" d="M381.5,771.3c-2.3-0.5-3.3-3.6-1.8-7.3c0.8,0.9,2.8,0.9,1.1,3.1C380.2,767.9,381.3,769.9,381.5,771.3z"/>
		<path class="st3" d="M357.6,771.4c-2.2-0.8-3.1-4.2-0.8-7.3C357.1,766.5,357.4,768.9,357.6,771.4z"/>
		<path class="st3" d="M367.6,771.5c0-2,0-4,0-6.1c1,0,2,0,2.6,0c-0.7,2-1.4,4.1-2,6.1C368,771.5,367.8,771.5,367.6,771.5z"/>
		<path class="st3" d="M433.2,771.8c1-3.1,2.1-6.3,3.1-9.4c0.3,0.1,0.6,0.2,0.9,0.3c-1,3.1-2,6.3-3,9.4
			C433.9,772,433.6,771.9,433.2,771.8z"/>
		<path class="st3" d="M-13.1,401.6c-1.2-0.7-4.1-1.6-5.9-3.5c-20.8-21.8-41.5-43.8-62.2-65.8c-4.7-5-4.5-11.6,0.1-15.8
			c4.5-4.1,10.5-3.6,15.2,1.3c20.6,21.8,41.1,43.6,61.7,65.3c3.3,3.5,4.4,7.6,2.3,12.1C-3.7,399.3-7,401.4-13.1,401.6z"/>
		<path d="M-31.8,765.8c-0.3,2.3-1,4.5-3.8,4.4c-2.6-0.1-3.4-2.1-3.4-4.4c0-2.4,0.7-4.6,3.6-4.6C-32.7,761.2-32,763.5-31.8,765.8z"
			/>
		<path d="M-102.9,765c-2.6,0-4.9,0-7.3,0c0.5-2.5,1.1-4.6,3.9-4.5C-103.5,760.5-103,762.5-102.9,765z"/>
		<path d="M-76.5,771c-2.8,0.1-4.6-1.9-4.7-5.1c-0.1-3.2,1.6-5.4,4.3-5.5c2.9-0.1,4.8,2,4.8,5.3C-72,768.9-73.8,771-76.5,771z"/>
		<path d="M489.1,767.1c1.2-1.4,2.1-2.4,3-3.3c0.6,1.1,1.7,2.2,1.7,3.3s-1.1,2.2-1.8,3.2C491.2,769.4,490.4,768.5,489.1,767.1z"/>
		<path d="M362.6,765.4c1.1,1.4,2.1,2.2,2.1,2.9c-0.1,0.7-1.2,1.4-1.8,2.1c-0.6-0.6-1.7-1.2-1.8-1.8
			C361,767.8,361.8,766.9,362.6,765.4z"/>
		<path d="M386.7,765.4c0.8,1.6,1.8,2.5,1.6,3.2c-0.2,0.7-1.4,1.2-2.1,1.8c-0.5-0.7-1.5-1.4-1.5-2.1
			C384.8,767.5,385.7,766.8,386.7,765.4z"/>
		<path d="M420.3,768.4c-1.4,0.9-2.2,2-2.9,1.8c-0.7-0.1-1.6-1.3-1.7-2.1c-0.1-0.5,1.1-1.7,1.7-1.7
			C418.2,766.5,419,767.4,420.3,768.4z"/>
	</g>
</g>
</svg>
